#!OML:ASF E:\emotionWalksFemale\Project 1\Capture day 1\Session 1\Female1.ASF
:FULLY-SPECIFIED
:DEGREES
995
root 9.11045 15.4754 -9.81674 180.57 9.4768 -178.026
lowerback 1.84842 2.47714 4.30112
upperback -5.47468 3.77299 -0.369348
thorax -6.44981 1.73497 -3.07173
lowerneck -2.75163 -1.48882 -5.19582
upperneck 17.1406 -1.38385 4.58674
head 5.68614 -0.295023 2.27054
rclavicle -1.09083e-014 9.74045e-015
rhumerus -37.3579 5.03098 -84.9251
rradius 33.7343
rwrist 17.6143
rhand 1.15223 -55.8802
rfingers 7.12502
rthumb 26.6935 -84.0177
lclavicle -1.09083e-014 9.74045e-015
lhumerus -56.0507 27.4526 54.0079
lradius 31.835
lwrist -19.2493
lhand -4.53412 -30.1762
lfingers 7.12502
lthumb 21.241 -1.32
rfemur 22.6043 8.24651 28.9645
rtibia 12.0872
rfoot 1.4755 -1.29042
rtoes 7.65596
lfemur -21.536 -23.1896 -18.5465
ltibia 24.2517
lfoot -20.4525 27.0588
ltoes 25.5214
996
root 9.09319 15.4896 -9.94022 180.437 9.45036 -178.2
lowerback 1.93067 2.47738 4.28487
upperback -5.53037 3.77776 -0.433069
thorax -6.55326 1.73363 -3.1366
lowerneck -3.01492 -1.52359 -4.99811
upperneck 17.3375 -1.38219 4.21953
head 5.79064 -0.303852 2.12287
rclavicle 1.38155e-014 3.97569e-015
rhumerus -37.8877 4.73015 -84.5211
rradius 33.9387
rwrist 17.1798
rhand 1.11942 -56.3702
rfingers 7.12502
rthumb 26.6621 -84.5124
lclavicle 1.38155e-014 3.97569e-015
lhumerus -56.0296 27.5078 54.1958
lradius 31.8811
lwrist -19.539
lhand -4.00226 -29.4495
lfingers 7.12502
lthumb 21.7518 -0.651727
rfemur 22.0414 7.93762 28.4392
rtibia 13.8105
rfoot 2.07643 -0.85026
rtoes 9.32827
lfemur -20.7648 -22.3295 -19.2676
ltibia 24.0372
lfoot -19.296 26.6452
ltoes 22.9167
997
root 9.07694 15.5031 -10.0634 180.294 9.50778 -178.383
lowerback 2.05084 2.49717 4.22178
upperback -5.5834 3.8079 -0.479953
thorax -6.6774 1.74678 -3.16174
lowerneck -3.09239 -1.5777 -4.39046
upperneck 17.3036 -1.37132 3.28136
head 5.78482 -0.330368 1.72368
rclavicle 2.67365e-014 3.37934e-015
rhumerus -38.3833 4.60692 -84.1851
rradius 34.0523
rwrist 16.488
rhand 0.468466 -56.2668
rfingers 7.12502
rthumb 26.039 -84.5023
lclavicle 2.67365e-014 3.37934e-015
lhumerus -55.8591 27.2519 54.8281
lradius 32.1034
lwrist -19.3339
lhand -3.5052 -29.0539
lfingers 7.12502
lthumb 22.229 -0.312234
rfemur 21.5311 7.60895 27.8569
rtibia 15.4447
rfoot 2.81454 -0.136685
rtoes 7.63135
lfemur -19.9961 -21.4722 -19.9871
ltibia 23.8786
lfoot -18.3484 26.2546
ltoes 19.8884
998
root 9.05771 15.5175 -10.1821 180.204 9.61112 -178.664
lowerback 2.1038 2.52939 4.08771
upperback -5.6729 3.85098 -0.556139
thorax -6.80286 1.77074 -3.17671
lowerneck -2.41721 -1.40737 -4.09067
upperneck 16.5481 -1.16146 2.9318
head 5.42092 -0.251512 1.56979
rclavicle 4.87519e-014 6.75868e-015
rhumerus -38.8918 4.66974 -83.9314
rradius 34.0312
rwrist 15.7844
rhand -0.243781 -55.7892
rfingers 7.12502
rthumb 25.3569 -84.1233
lclavicle 4.87519e-014 6.75868e-015
lhumerus -55.6396 26.8352 55.629
lradius 32.444
lwrist -18.8892
lhand -3.25788 -28.9134
lfingers 7.12502
lthumb 22.4665 -0.200196
rfemur 20.9316 7.23427 27.085
rtibia 17.0518
rfoot 3.71929 1.02238
rtoes 4.19061
lfemur -19.3229 -20.6562 -20.7539
ltibia 23.7392
lfoot -17.8101 25.7576
ltoes 18.3364
999
root 9.02926 15.5258 -10.3201 179.807 10.0958 -178.833
lowerback 2.08736 2.68376 4.32655
upperback -5.51526 4.04462 -0.651336
thorax -6.58755 1.85309 -3.41344
lowerneck -3.98186 -1.7551 -2.9182
upperneck 17.91 -1.37601 1.1266
head 6.10682 -0.388109 0.796399
rclavicle -1.2921e-015 -2.78299e-015
rhumerus -39.367 4.72536 -83.7643
rradius 34.2183
rwrist 15.3159
rhand -0.437587 -55.7053
rfingers 7.12502
rthumb 25.1712 -84.0656
lclavicle -1.2921e-015 -2.78299e-015
lhumerus -55.4478 26.2553 56.6678
lradius 33.3222
lwrist -18.102
lhand -3.04238 -28.3764
lfingers 7.12502
lthumb 22.6733 0.311701
rfemur 20.573 7.09221 26.3281
rtibia 18.7682
rfoot 4.66371 2.15522
rtoes 4.85927
lfemur -18.1762 -20.5454 -21.4568
ltibia 23.5795
lfoot -18.3276 25.9658
ltoes 19.1722
1000
root 9.00665 15.5345 -10.4443 179.601 10.3164 -179.043
lowerback 2.13895 2.7266 4.3829
upperback -5.4599 4.09457 -0.732329
thorax -6.54444 1.87175 -3.53318
lowerneck -2.8553 -1.36453 -3.76967
upperneck 16.6647 -1.03878 2.30217
head 5.52403 -0.21989 1.32471
rclavicle 6.24681e-014 1.09332e-014
rhumerus -39.8015 4.78338 -83.6148
rradius 34.5479
rwrist 14.894
rhand -0.545066 -55.8752
rfingers 7.12502
rthumb 25.0682 -84.25
lclavicle 6.24681e-014 1.09332e-014
lhumerus -54.6843 26.3778 57.0623
lradius 32.5672
lwrist -18.1612
lhand -3.10537 -28.7913
lfingers 7.12502
lthumb 22.6128 -0.0958765
rfemur 19.9395 6.88602 25.6092
rtibia 20.5763
rfoot 5.64191 2.66806
rtoes 7.52778
lfemur -17.3185 -20.4151 -22.1031
ltibia 23.3778
lfoot -18.436 26.053
ltoes 18.9545
